<svg width="221" height="29" viewBox="0 0 221 29" fill="none" xmlns="http://www.w3.org/2000/svg">
<g clip-path="url(#clip0_7_866)">
<path d="M106.582 15.3611C106.582 20.1441 103.644 22.9954 99.5801 22.9954C97.3323 22.9954 95.3749 22.0728 94.4809 20.5465V28.4683H91.3392V7.95956H94.2194L94.4781 10.2073C95.372 8.68103 97.272 7.67212 99.5772 7.67212C103.495 7.67212 106.579 10.4085 106.579 15.364L106.582 15.3611ZM103.325 15.3611C103.325 12.3372 101.54 10.4631 98.9449 10.4631C96.4671 10.4344 94.5672 12.3344 94.5672 15.3898C94.5672 18.4453 96.47 20.2015 98.9449 20.2015C101.42 20.2015 103.325 18.3878 103.325 15.3611Z" fill="#E9EFF4"/>
<path d="M123.291 16.1974H111.997C112.055 18.9626 113.869 20.4026 116.174 20.4026C117.901 20.4026 119.344 19.5949 119.948 17.9824H123.147C122.368 20.9775 119.718 22.9953 116.116 22.9953C111.707 22.9953 108.798 19.9427 108.798 15.3035C108.798 10.6642 111.707 7.64038 116.088 7.64038C120.468 7.64038 123.291 10.578 123.291 15.016V16.1974ZM112.026 14.0071H120.092C119.919 11.4432 118.22 10.1468 116.088 10.1468C113.955 10.1468 112.256 11.4432 112.026 14.0071Z" fill="#E9EFF4"/>
<path d="M128.853 7.95898C127.387 7.95898 126.2 9.1461 126.2 10.612V22.7103H129.37V14.846V11.4456C129.37 11.0806 129.666 10.7816 130.034 10.7816H134.875V7.95898H128.856H128.853Z" fill="#E9EFF4"/>
<path d="M86.2718 7.93018L82.2103 20.175L77.8297 7.95892H74.4293L80.0459 22.509C80.2183 22.9689 80.3046 23.3455 80.3046 23.7191C80.3046 23.9232 80.2844 24.1101 80.2499 24.2825L80.2413 24.3141C80.2212 24.4061 80.1982 24.4924 80.1695 24.5757L79.9568 25.3547C79.905 25.5473 79.7297 25.6795 79.5313 25.6795H75.0617V28.4734H78.3184C80.5086 28.4734 82.3224 27.956 83.36 25.073L89.5543 7.95892L86.2689 7.93018H86.2718Z" fill="#E9EFF4"/>
<path d="M59.448 22.7077H62.5868V14.7572C62.5868 12.2795 63.9407 10.552 66.4471 10.552C68.6374 10.5232 69.9912 11.8196 69.9912 14.6709V22.7077H73.1329V14.1794C73.1329 9.13776 70.0516 7.64021 67.2548 7.64021C65.122 7.64021 63.452 8.47665 62.5868 9.85923V1.90869H59.448V22.7077Z" fill="#E9EFF4"/>
<path d="M139.022 18.2441C139.051 19.7704 140.462 20.6643 142.394 20.6643C144.326 20.6643 145.475 19.9429 145.475 18.6465C145.475 17.5226 144.9 16.919 143.228 16.6574L140.261 16.14C137.381 15.6514 136.257 14.151 136.257 12.0498C136.257 9.39962 138.879 7.67212 142.221 7.67212C145.823 7.67212 148.445 9.39962 148.473 12.3401H145.363C145.334 10.8426 144.038 10.0061 142.224 10.0061C140.411 10.0061 139.402 10.7276 139.402 11.9377C139.402 13.0041 140.152 13.4927 141.793 13.7802L144.702 14.2976C147.438 14.7862 148.706 16.14 148.706 18.3591C148.706 21.4117 145.883 22.9983 142.454 22.9983C138.565 22.9983 135.944 21.1271 135.886 18.2441H139.028H139.022Z" fill="#E9EFF4"/>
<path d="M155.846 19.2524L159.189 7.95898H162.474L165.76 19.2524L168.554 7.95898H171.868L167.691 22.7103H164.147L160.804 11.4744L157.433 22.7103H153.86L149.655 7.95898H152.969L155.849 19.2524H155.846Z" fill="#E9EFF4"/>
<path d="M173.71 1.90869H177.197V5.19411H173.71V1.90869ZM173.883 7.95926H177.022V22.7106H173.883V7.95926Z" fill="#E9EFF4"/>
<path d="M196.987 10.379C194.538 10.379 192.868 12.164 192.868 15.3057C192.868 18.6199 194.596 20.2324 196.901 20.2324C198.743 20.2324 200.1 19.1948 200.704 17.2373H204.047C203.296 20.8102 200.589 23.0005 196.958 23.0005C192.581 23.0005 189.64 19.9479 189.64 15.3086C189.64 10.6694 192.578 7.64551 196.987 7.64551C200.589 7.64551 203.268 9.69207 204.047 13.262H200.646C200.129 11.4196 198.715 10.3819 196.987 10.3819V10.379Z" fill="#E9EFF4"/>
<path d="M184.785 19.9135C184.601 19.9135 184.455 19.764 184.455 19.5829V10.7528H187.884V7.95892H184.455V4.00952H181.316V6.57347C181.316 7.49615 181.029 7.95605 180.106 7.95605H178.838V10.7499H181.316V18.7005C181.316 21.2644 182.727 22.7045 185.291 22.7045H187.855V19.9106H184.788L184.785 19.9135Z" fill="#E9EFF4"/>
<path d="M214.205 7.64021C212.072 7.64021 210.402 8.47665 209.537 9.85923V1.90869H206.398V22.7077H209.537V14.7572C209.537 12.2795 210.89 10.552 213.397 10.552C215.587 10.5232 216.941 11.8196 216.941 14.6709V22.7077H220.083V14.1794C220.083 9.13776 217.001 7.64021 214.205 7.64021Z" fill="#E9EFF4"/>
<path d="M38.6961 0H12.2179C5.47015 0 0 5.47014 0 12.2179C0 18.9657 5.47015 24.4358 12.2179 24.4358H38.6961C45.4439 24.4358 50.914 18.9657 50.914 12.2179C50.914 5.47014 45.4439 0 38.6961 0Z" fill="#0070FF"/>
<path d="M39.9695 16.0829C42.1038 16.0829 43.834 14.3527 43.834 12.2184C43.834 10.084 42.1038 8.35376 39.9695 8.35376C37.8351 8.35376 36.1049 10.084 36.1049 12.2184C36.1049 14.3527 37.8351 16.0829 39.9695 16.0829Z" fill="white"/>
<path d="M15.1807 15.2316L11.1387 8.955C11.0477 8.81383 10.8415 8.81383 10.7505 8.955L6.70851 15.2316C6.60913 15.3848 6.71965 15.5873 6.90262 15.5873H14.9866C15.1696 15.5873 15.2801 15.3848 15.1807 15.2316Z" fill="white"/>
<path d="M28.6534 8.6499H22.2607C22.0555 8.6499 21.8892 8.81623 21.8892 9.02141V15.4141C21.8892 15.6193 22.0555 15.7856 22.2607 15.7856H28.6534C28.8585 15.7856 29.0249 15.6193 29.0249 15.4141V9.02141C29.0249 8.81623 28.8585 8.6499 28.6534 8.6499Z" fill="white"/>
</g>
<defs>
<clipPath id="clip0_7_866">
<rect width="220.08" height="28.4707" fill="white"/>
</clipPath>
</defs>
</svg>



